<svg width="96" height="96" xmlns="http://www.w3.org/2000/svg" xmlns:xlink="http://www.w3.org/1999/xlink" xml:space="preserve" overflow="hidden"><defs><clipPath id="clip0"><rect x="991" y="362" width="96" height="96"/></clipPath></defs><g clip-path="url(#clip0)" transform="translate(-991 -362)"><path d="M997.567 413.958 1004.06 420.446 1009 415.764 1009 447.976 1034 447.986 1034 423.017 1044 423.017 1044 447.99 1069 448 1069 415.722 1073.97 420.422 1080.43 413.959 1039 374.6ZM1067 446 1046 445.991 1046 421.017 1032 421.017 1032 445.985 1011 445.977 1011 413.87 1039 387.354 1067 413.831ZM1004.09 417.656 1000.43 414 1039 377.356 1077.57 414 1073.93 417.632 1039 384.6Z"/></g></svg>