<svg width="199" height="207" xmlns="http://www.w3.org/2000/svg" xmlns:xlink="http://www.w3.org/1999/xlink" xml:space="preserve" overflow="hidden"><defs><clipPath id="clip0"><rect x="2917" y="2116" width="199" height="207"/></clipPath></defs><g clip-path="url(#clip0)" transform="translate(-2917 -2116)"><path d="M3066.56 2166.81 3016 2116 2965.44 2166.81 2962 2170.27 2966.86 2175.15 2970.3 2171.7 3012.5 2129.28C3012.52 2129.27 3012.54 2129.27 3012.55 2129.29 3012.56 2129.29 3012.56 2129.3 3012.56 2129.31L3012.56 2266 3019.44 2266 3019.44 2129.31C3019.44 2129.29 3019.45 2129.27 3019.47 2129.27 3019.48 2129.28 3019.49 2129.28 3019.5 2129.28L3061.7 2171.7 3065.14 2175.15 3070 2170.27Z" fill-rule="evenodd"/><path d="M3109.14 2316.09 2923.86 2316.09 2923.86 2247 2917 2247 2917 2323 3116 2323 3116 2247 3109.14 2247 3109.14 2316.09Z" fill-rule="evenodd"/></g></svg>