<svg width="96" height="96" xmlns="http://www.w3.org/2000/svg" xmlns:xlink="http://www.w3.org/1999/xlink" xml:space="preserve" overflow="hidden"><defs><clipPath id="clip0"><rect x="702" y="536" width="96" height="96"/></clipPath></defs><g clip-path="url(#clip0)" transform="translate(-702 -536)"><path d="M766 566C766 574.837 758.837 582 750 582 741.163 582 734 574.837 734 566 734 557.163 741.163 550 750 550 758.837 550 766 557.163 766 566Z"/><path d="M782 618 782 602C782 599.6 780.8 597.2 778.8 595.6 774.4 592 768.8 589.6 763.2 588 759.2 586.8 754.8 586 750 586 745.6 586 741.2 586.8 736.8 588 731.2 589.6 725.6 592.4 721.2 595.6 719.2 597.2 718 599.6 718 602L718 618 782 618Z"/></g></svg>