<svg width="96" height="96" xmlns="http://www.w3.org/2000/svg" xmlns:xlink="http://www.w3.org/1999/xlink" xml:space="preserve" overflow="hidden"><defs><clipPath id="clip0"><rect x="1116" y="554" width="96" height="96"/></clipPath></defs><g clip-path="url(#clip0)" transform="translate(-1116 -554)"><path d="M1164 570C1171.73 570 1178 576.268 1178 584 1178 591.732 1171.73 598 1164 598 1156.27 598 1150 591.732 1150 584 1150.01 576.271 1156.27 570.008 1164 570M1164 568C1155.16 568 1148 575.163 1148 584 1148 592.837 1155.16 600 1164 600 1172.84 600 1180 592.837 1180 584 1180 575.163 1172.84 568 1164 568Z"/><path d="M1196 636 1194 636 1194 620.5C1193.95 618.376 1192.95 616.386 1191.28 615.081 1186.89 611.716 1181.87 609.273 1176.51 607.9 1172.46 606.652 1168.24 606.012 1164 606 1159.76 606.074 1155.55 606.713 1151.48 607.9 1146.18 609.452 1141.18 611.886 1136.69 615.1 1135.03 616.406 1134.04 618.388 1134 620.5L1134 636 1132 636 1132 620.5C1132.05 617.769 1133.33 615.205 1135.48 613.519 1140.17 610.151 1145.39 607.601 1150.94 605.977 1155.18 604.74 1159.58 604.075 1164 604 1168.43 604.011 1172.84 604.678 1177.07 605.979 1182.68 607.424 1187.94 609.991 1192.53 613.525 1194.68 615.211 1195.95 617.772 1196 620.5Z"/></g></svg>